<svg width="198" height="18" viewBox="0 0 198 18" fill="none" xmlns="http://www.w3.org/2000/svg">
<path d="M10.748 1.49V4.922H4.544V7.65H9.12V10.928H4.544V17H0.232V1.49H10.748ZM24.356 10.686C24.356 11.0233 24.334 11.3607 24.29 11.698H16.128C16.172 12.3727 16.3554 12.8787 16.678 13.216C17.0154 13.5387 17.4407 13.7 17.954 13.7C18.6727 13.7 19.186 13.3773 19.494 12.732H24.092C23.9014 13.5827 23.5274 14.3453 22.97 15.02C22.4274 15.68 21.738 16.2007 20.902 16.582C20.066 16.9633 19.142 17.154 18.13 17.154C16.9127 17.154 15.8274 16.8973 14.874 16.384C13.9354 15.8707 13.1947 15.1373 12.652 14.184C12.124 13.2307 11.86 12.1087 11.86 10.818C11.86 9.52733 12.124 8.41267 12.652 7.474C13.18 6.52067 13.9134 5.78733 14.852 5.274C15.8054 4.76067 16.898 4.504 18.13 4.504C19.3474 4.504 20.4254 4.75333 21.364 5.252C22.3027 5.75067 23.036 6.46933 23.564 7.408C24.092 8.332 24.356 9.42467 24.356 10.686ZM19.956 9.608C19.956 9.08 19.78 8.66933 19.428 8.376C19.076 8.068 18.636 7.914 18.108 7.914C17.58 7.914 17.1474 8.06067 16.81 8.354C16.4727 8.63267 16.2527 9.05067 16.15 9.608H19.956ZM42.2467 4.548C43.8013 4.548 45.0187 5.01733 45.8987 5.956C46.7933 6.89467 47.2407 8.178 47.2407 9.806V17H42.9287V10.378C42.9287 9.718 42.7453 9.20467 42.3787 8.838C42.012 8.47133 41.5133 8.288 40.8827 8.288C40.252 8.288 39.7533 8.47133 39.3867 8.838C39.02 9.20467 38.8367 9.718 38.8367 10.378V17H34.5247V10.378C34.5247 9.718 34.3413 9.20467 33.9747 8.838C33.6227 8.47133 33.1313 8.288 32.5007 8.288C31.8553 8.288 31.3493 8.47133 30.9827 8.838C30.616 9.20467 30.4327 9.718 30.4327 10.378V17H26.1207V4.658H30.4327V6.286C30.814 5.758 31.3053 5.34 31.9067 5.032C32.5227 4.70933 33.2267 4.548 34.0187 4.548C34.928 4.548 35.7347 4.746 36.4387 5.142C37.1573 5.538 37.722 6.09533 38.1327 6.814C38.5727 6.13933 39.152 5.59667 39.8707 5.186C40.5893 4.76067 41.3813 4.548 42.2467 4.548ZM65.7291 4.548C67.2838 4.548 68.5011 5.01733 69.3811 5.956C70.2758 6.89467 70.7231 8.178 70.7231 9.806V17H66.4111V10.378C66.4111 9.718 66.2278 9.20467 65.8611 8.838C65.4944 8.47133 64.9958 8.288 64.3651 8.288C63.7344 8.288 63.2358 8.47133 62.8691 8.838C62.5024 9.20467 62.3191 9.718 62.3191 10.378V17H58.0071V10.378C58.0071 9.718 57.8238 9.20467 57.4571 8.838C57.1051 8.47133 56.6138 8.288 55.9831 8.288C55.3378 8.288 54.8318 8.47133 54.4651 8.838C54.0984 9.20467 53.9151 9.718 53.9151 10.378V17H49.6031V4.658H53.9151V6.286C54.2964 5.758 54.7878 5.34 55.3891 5.032C56.0051 4.70933 56.7091 4.548 57.5011 4.548C58.4104 4.548 59.2171 4.746 59.9211 5.142C60.6398 5.538 61.2044 6.09533 61.6151 6.814C62.0551 6.13933 62.6344 5.59667 63.3531 5.186C64.0718 4.76067 64.8638 4.548 65.7291 4.548ZM84.8775 10.686C84.8775 11.0233 84.8555 11.3607 84.8115 11.698H76.6495C76.6935 12.3727 76.8768 12.8787 77.1995 13.216C77.5368 13.5387 77.9622 13.7 78.4755 13.7C79.1942 13.7 79.7075 13.3773 80.0155 12.732H84.6135C84.4228 13.5827 84.0488 14.3453 83.4915 15.02C82.9488 15.68 82.2595 16.2007 81.4235 16.582C80.5875 16.9633 79.6635 17.154 78.6515 17.154C77.4342 17.154 76.3488 16.8973 75.3955 16.384C74.4568 15.8707 73.7162 15.1373 73.1735 14.184C72.6455 13.2307 72.3815 12.1087 72.3815 10.818C72.3815 9.52733 72.6455 8.41267 73.1735 7.474C73.7015 6.52067 74.4348 5.78733 75.3735 5.274C76.3268 4.76067 77.4195 4.504 78.6515 4.504C79.8688 4.504 80.9468 4.75333 81.8855 5.252C82.8242 5.75067 83.5575 6.46933 84.0855 7.408C84.6135 8.332 84.8775 9.42467 84.8775 10.686ZM80.4775 9.608C80.4775 9.08 80.3015 8.66933 79.9495 8.376C79.5975 8.068 79.1575 7.914 78.6295 7.914C78.1015 7.914 77.6688 8.06067 77.3315 8.354C76.9942 8.63267 76.7742 9.05067 76.6715 9.608H80.4775ZM90.9542 6.836C91.4382 6.132 92.0248 5.57467 92.7142 5.164C93.4035 4.75333 94.1442 4.548 94.9362 4.548V9.146H93.7262C92.7875 9.146 92.0908 9.32933 91.6362 9.696C91.1815 10.0627 90.9542 10.7007 90.9542 11.61V17H86.6422V4.658H90.9542V6.836ZM106.382 6.594C106.133 6.18333 105.788 5.868 105.348 5.648C104.923 5.428 104.417 5.318 103.83 5.318C102.745 5.318 101.887 5.67 101.256 6.374C100.64 7.078 100.332 8.024 100.332 9.212C100.332 10.5467 100.662 11.566 101.322 12.27C101.997 12.9593 102.972 13.304 104.248 13.304C105.759 13.304 106.837 12.622 107.482 11.258H103.148V8.156H111.2V12.336C110.863 13.1573 110.364 13.9273 109.704 14.646C109.059 15.3647 108.237 15.9587 107.24 16.428C106.243 16.8827 105.106 17.11 103.83 17.11C102.275 17.11 100.897 16.78 99.694 16.12C98.506 15.4453 97.582 14.514 96.922 13.326C96.2767 12.1233 95.954 10.752 95.954 9.212C95.954 7.68667 96.2767 6.33 96.922 5.142C97.582 3.93933 98.506 3.008 99.694 2.348C100.882 1.67333 102.253 1.336 103.808 1.336C105.759 1.336 107.372 1.80533 108.648 2.744C109.924 3.68267 110.716 4.966 111.024 6.594H106.382ZM117.444 0.72V17H113.132V0.72H117.444ZM119.196 10.818C119.196 9.542 119.423 8.42733 119.878 7.474C120.347 6.52067 120.978 5.78733 121.77 5.274C122.577 4.76067 123.471 4.504 124.454 4.504C125.305 4.504 126.038 4.67267 126.654 5.01C127.27 5.34733 127.747 5.802 128.084 6.374V4.658H132.396V17H128.084V15.284C127.747 15.856 127.263 16.3107 126.632 16.648C126.016 16.9853 125.29 17.154 124.454 17.154C123.471 17.154 122.577 16.8973 121.77 16.384C120.978 15.8707 120.347 15.1373 119.878 14.184C119.423 13.216 119.196 12.094 119.196 10.818ZM128.084 10.818C128.084 10.026 127.864 9.40267 127.424 8.948C126.999 8.49333 126.471 8.266 125.84 8.266C125.195 8.266 124.659 8.49333 124.234 8.948C123.809 9.388 123.596 10.0113 123.596 10.818C123.596 11.61 123.809 12.2407 124.234 12.71C124.659 13.1647 125.195 13.392 125.84 13.392C126.471 13.392 126.999 13.1647 127.424 12.71C127.864 12.2553 128.084 11.6247 128.084 10.818ZM150.979 4.548C152.534 4.548 153.751 5.01733 154.631 5.956C155.526 6.89467 155.973 8.178 155.973 9.806V17H151.661V10.378C151.661 9.718 151.478 9.20467 151.111 8.838C150.744 8.47133 150.246 8.288 149.615 8.288C148.984 8.288 148.486 8.47133 148.119 8.838C147.752 9.20467 147.569 9.718 147.569 10.378V17H143.257V10.378C143.257 9.718 143.074 9.20467 142.707 8.838C142.355 8.47133 141.864 8.288 141.233 8.288C140.588 8.288 140.082 8.47133 139.715 8.838C139.348 9.20467 139.165 9.718 139.165 10.378V17H134.853V4.658H139.165V6.286C139.546 5.758 140.038 5.34 140.639 5.032C141.255 4.70933 141.959 4.548 142.751 4.548C143.66 4.548 144.467 4.746 145.171 5.142C145.89 5.538 146.454 6.09533 146.865 6.814C147.305 6.13933 147.884 5.59667 148.603 5.186C149.322 4.76067 150.114 4.548 150.979 4.548ZM186.857 4.658V17H182.523V15.24C182.156 15.7973 181.65 16.252 181.005 16.604C180.36 16.9413 179.619 17.11 178.783 17.11C177.346 17.11 176.209 16.6407 175.373 15.702C174.552 14.7487 174.141 13.458 174.141 11.83V4.658H178.431V11.28C178.431 11.984 178.614 12.5413 178.981 12.952C179.362 13.348 179.861 13.546 180.477 13.546C181.108 13.546 181.606 13.348 181.973 12.952C182.34 12.5413 182.523 11.984 182.523 11.28V4.658H186.857ZM193.623 6.836C194.107 6.132 194.694 5.57467 195.383 5.164C196.072 4.75333 196.813 4.548 197.605 4.548V9.146H196.395C195.456 9.146 194.76 9.32933 194.305 9.696C193.85 10.0627 193.623 10.7007 193.623 11.61V17H189.311V4.658H193.623V6.836Z" fill="black"/>
<path d="M165.029 17.175C163.629 17.175 162.37 16.8833 161.254 16.3C160.154 15.7167 159.287 14.8833 158.654 13.8C158.02 12.7167 157.704 11.4417 157.704 9.975C157.704 8.525 158.02 7.25833 158.654 6.175C159.304 5.09167 160.179 4.25833 161.279 3.675C162.395 3.09167 163.654 2.8 165.054 2.8C166.454 2.8 167.704 3.09167 168.804 3.675C169.92 4.25833 170.795 5.09167 171.429 6.175C172.079 7.25833 172.404 8.525 172.404 9.975C172.404 11.425 172.079 12.7 171.429 13.8C170.795 14.8833 169.92 15.7167 168.804 16.3C167.687 16.8833 166.429 17.175 165.029 17.175ZM165.029 12.925C165.712 12.925 166.279 12.675 166.729 12.175C167.195 11.6583 167.429 10.925 167.429 9.975C167.429 9.025 167.195 8.3 166.729 7.8C166.279 7.3 165.72 7.05 165.054 7.05C164.387 7.05 163.829 7.3 163.379 7.8C162.929 8.3 162.704 9.025 162.704 9.975C162.704 10.9417 162.92 11.675 163.354 12.175C163.787 12.675 164.345 12.925 165.029 12.925Z" fill="#FF007A"/>
</svg>
